<?xml version="1.0" standalone="no"?>
<!DOCTYPE svg PUBLIC "-//W3C//DTD SVG 20010904//EN"
 "http://www.w3.org/TR/2001/REC-SVG-20010904/DTD/svg10.dtd">
<svg version="1.0" xmlns="http://www.w3.org/2000/svg"
 width="2000.000000pt" height="2000.000000pt" viewBox="0 0 2000.000000 2000.000000"
 preserveAspectRatio="xMidYMid meet">
<metadata>
Created by potrace 1.14, written by Peter Selinger 2001-2017
</metadata>
<g transform="translate(0.000000,2000.000000) scale(0.100000,-0.100000)"
fill="#000000" stroke="none">
<path d="M8329 15065 c-227 -43 -438 -163 -639 -365 -365 -366 -594 -921 -651
-1575 -15 -173 -7 -555 16 -745 113 -940 493 -1607 990 -1735 80 -20 252 -21
339 -1 446 104 855 579 1070 1244 172 535 199 1146 75 1754 -127 627 -412
1158 -723 1347 -111 67 -170 85 -291 88 -65 1 -141 -4 -186 -12z"/>
<path d="M11350 15061 c-202 -65 -378 -229 -544 -506 -199 -331 -334 -773
-392 -1280 -20 -182 -23 -568 -5 -735 69 -631 302 -1192 645 -1549 239 -249
473 -363 736 -362 122 1 194 17 299 67 437 206 752 828 857 1694 23 183 26
704 6 850 -71 509 -216 905 -460 1250 -132 187 -358 388 -537 477 -200 101
-460 141 -605 94z"/>
<path d="M5630 12040 c-335 -86 -662 -607 -849 -1356 -133 -533 -149 -925 -54
-1329 108 -457 368 -867 689 -1081 235 -157 451 -175 676 -57 135 70 296 251
389 434 233 462 335 1275 243 1944 -97 704 -415 1267 -802 1417 -82 32 -224
46 -292 28z"/>
<path d="M14163 12040 c-328 -70 -644 -475 -797 -1022 -68 -243 -97 -418 -117
-703 -22 -326 12 -784 82 -1105 88 -404 228 -692 422 -877 170 -160 377 -225
573 -178 287 67 596 366 789 760 219 448 272 936 164 1505 -31 162 -95 409
-145 559 -187 559 -437 932 -695 1037 -71 29 -199 40 -276 24z"/>
<path d="M9883 10620 c-329 -33 -601 -221 -855 -590 -90 -130 -169 -265 -353
-605 -176 -324 -269 -479 -372 -617 -105 -141 -233 -278 -722 -773 -135 -137
-282 -288 -326 -335 -487 -517 -738 -917 -819 -1305 -76 -366 46 -817 295
-1089 106 -116 274 -223 450 -284 323 -114 826 -135 1216 -51 188 40 288 71
623 192 499 180 643 211 980 211 337 0 481 -31 980 -211 262 -95 316 -113 443
-149 224 -63 452 -94 693 -94 810 0 1271 296 1428 917 115 453 -2 867 -394
1388 -182 242 -313 386 -830 910 -639 650 -665 683 -1020 1335 -185 340 -293
519 -393 652 -282 375 -618 538 -1024 498z"/>
</g>
</svg>
